<?xml version="1.0" encoding="utf-8"?>
<!-- Svg Vector Icons : http://www.onlinewebfonts.com/icon -->
<!DOCTYPE svg PUBLIC "-//W3C//DTD SVG 1.1//EN" "http://www.w3.org/Graphics/SVG/1.1/DTD/svg11.dtd">
<svg version="1.1" xmlns="http://www.w3.org/2000/svg" xmlns:xlink="http://www.w3.org/1999/xlink" x="0px" y="0px" viewBox="0 0 1000 1000" enable-background="new 0 0 1000 1000" xml:space="preserve">
<metadata> Svg Vector Icons : http://www.onlinewebfonts.com/icon </metadata>
<g><g transform="translate(0.000000,512.000000) scale(0.100000,-0.100000)" fill="#e4e4e4"><path d="M4530.1,5007.9C3375.4,4889,2341.7,4400,1530.4,3588.6C751.6,2809.9,287.5,1860.5,124.4,723.1c-32.6-226.3-32.6-982,0-1208.3c163-1137.4,629.1-2086.8,1405.9-2865.5c776.8-776.8,1730-1244.8,2865.5-1405.9c226.3-32.6,982-32.6,1208.3,0c939.8,134.3,1779.9,491,2474.2,1053c987.8,797.9,1611.1,1916.1,1797.2,3218.4c32.6,226.3,32.6,982,0,1208.3c-161.1,1135.5-629.1,2088.7-1405.9,2865.5c-759.5,759.5-1687.8,1223.7-2779.2,1392.5C5448.8,5017.5,4775.6,5034.8,4530.1,5007.9z M5677,4359.7c124.7-23,295.4-57.5,377.9-78.6c138.1-34.5,535.1-163,548.5-176.5c3.8-5.7-203.3-853.5-281.9-1148.9l-17.3-71l-186,76.7c-734.6,303-1567,295.4-2303.5-23c-59.5-24.9-107.4-36.4-117-26.9s-78.7,268.5-153.4,573.5c-74.8,306.9-141.9,569.6-147.7,586.9c-21.1,71,698.1,270.4,1171.9,324.1C4821.6,4424.9,5418.1,4405.7,5677,4359.7z M5517.9,2518.4c631-143.8,1170-512.1,1528.6-1047.2c186.1-278.1,328-648.3,377.9-989.7C7579.7-567.6,7052.2-1588,6106.7-2069.5c-320.3-163-748-266.6-1106.7-266.6c-460.3,0-976.3,155.4-1352.2,408.5c-159.2,107.4-207.1,147.7-389.3,326.1c-329.9,326.1-563.9,759.5-667.5,1240.9c-49.9,228.2-49.9,730.8,0,959c105.5,487.2,329.9,901.5,675.1,1250.5c393.2,395.1,899.5,640.6,1465.3,713.5C4883,2581.7,5358.7,2554.8,5517.9,2518.4z M1586,1586.2c280-69,540.9-134.3,579.2-145.8l71-17.3l-55.6-120.8c-28.8-65.2-80.6-205.2-113.1-310.7c-197.6-650.2-176.5-1310,65.2-1927.6c38.4-99.7,71-199.5,72.9-218.7c3.8-32.6-57.5-51.8-542.8-174.5c-301.1-74.8-569.6-141.9-596.5-149.6c-49.9-13.4-53.7-7.7-111.2,155.4C619.3-381.6,625,661.8,968.4,1590.1c36.5,103.6,59.5,138.1,80.6,130.4C1064.3,1716.7,1305.9,1655.3,1586,1586.2z M9071.9,1467.3C9373,562,9367.3-368.2,9056.6-1283.1c-36.5-107.4-69-197.6-71-201.4c-5.8-3.8-853.5,203.3-1148.9,281.9l-71,17.3l76.7,186c299.2,723.1,295.4,1532.5-7.7,2265.1c-32.6,76.7-51.8,145.8-44.1,153.4c9.6,9.6,1118.2,299.2,1181.5,308.8C8979.8,1730.1,9023.9,1611.2,9071.9,1467.3z M4127.3-2813.6c331.8-101.6,502.5-124.7,872.7-124.7c454.6,0,744.2,55.6,1147,222.5c78.6,32.6,147.7,51.8,155.4,42.2c9.6-9.6,78.6-266.6,153.4-573.5c74.8-305,141.9-569.6,147.7-586.9c11.5-38.4-209-120.9-548.5-207.2c-393.2-101.6-600.3-126.6-1054.9-124.7c-427.7,0-556.2,13.4-936,95.9c-180.3,40.3-644.4,182.2-667.5,203.3c-3.8,5.8,201.4,845.8,282,1150.8l17.2,71l120.8-55.6C3881.8-2729.2,4021.8-2781,4127.3-2813.6z"/></g></g>
</svg>