<?xml version="1.0" encoding="utf-8"?>
<!-- Svg Vector Icons : http://www.onlinewebfonts.com/icon -->
<!DOCTYPE svg PUBLIC "-//W3C//DTD SVG 1.1//EN" "http://www.w3.org/Graphics/SVG/1.1/DTD/svg11.dtd">
<svg version="1.1" xmlns="http://www.w3.org/2000/svg" xmlns:xlink="http://www.w3.org/1999/xlink" x="0px" y="0px" viewBox="0 0 1000 1000" enable-background="new 0 0 1000 1000" xml:space="preserve">
<metadata> Svg Vector Icons : http://www.onlinewebfonts.com/icon </metadata>
<g fill="#e4e4e4"><path d="M819,476.8c23.1,0,45.1,4.3,65.9,12.9c20.9,8.6,39.1,20.5,54.8,35.6c15.6,15.1,27.9,32.7,36.9,52.9c8.9,20.1,13.4,41.4,13.4,63.7c0,23-4.5,44.4-13.4,64.2c-8.9,19.8-21.2,37.2-36.9,52.3c-15.6,15.1-33.9,27-54.8,35.6c-20.9,8.6-42.8,12.9-65.9,12.9c-21.6,0-41.9-3.8-60.9-11.3c-19-7.5-35.9-17.4-50.8-29.7v134.9c0,19.4-7.1,36-21.2,49.6c-14.2,13.7-31.3,20.5-51.4,20.5H83.7c-20.1,0-37.4-6.8-52-20.5C17.3,936.8,10,920.2,10,900.8V781c3.7-15.1,10.4-26.3,20.1-33.4c9.7-7.2,23.8-5.4,42.5,5.4c8.9,5,15.6,7.9,20.1,8.6c19.4,9.3,39.1,14,59.2,14c20.1,0,38.9-3.6,56.4-10.8c17.5-7.2,32.8-17.1,45.8-29.7c13-12.6,23.3-27.2,30.7-43.7c7.4-16.5,11.2-34.5,11.2-53.9c0-19.4-3.7-37.6-11.2-54.5c-7.5-16.9-17.7-31.6-30.7-44.2c-13-12.6-28.3-22.5-45.8-29.7c-17.5-7.2-36.3-10.8-56.4-10.8c-19.4,0-38.4,4-57,11.9c-4.5,1.4-8.2,2.9-11.2,4.3c-8.9,4.3-17.7,8.3-26.3,11.9c-8.6,3.6-16.2,5-22.9,4.3c-6.7-0.7-12.3-4.3-16.8-10.8c-4.5-6.5-7.1-17.3-7.8-32.4V374.3c0-19.4,7.3-36.1,21.8-50.2c14.5-14,31.8-21,52-21h174.3c-11.9-14.4-21.4-30.4-28.5-48c-7.1-17.6-10.6-36.5-10.6-56.6c0-23.7,4.7-45.9,14-66.3c9.3-20.5,21.8-38.3,37.4-53.4c15.6-15.1,34.1-27.2,55.3-36.1c21.2-9,43.8-13.5,67.6-13.5c23.8,0,46.4,4.5,67.6,13.5c21.2,9,39.7,21,55.3,36.1c15.6,15.1,28.1,32.9,37.4,53.4c9.3,20.5,14,42.6,14,66.3c0,40.3-13,75.2-39.1,104.7h106.2c20.1,0,37.2,7,51.4,21c14.1,14,21.2,30.7,21.2,50.2v143.5c14.9-12.2,31.8-22.1,50.8-29.7C777.1,480.6,797.4,476.8,819,476.8L819,476.8z"/></g>
</svg>