<svg xmlns="http://www.w3.org/2000/svg" width="29" height="15">
    <path fill="#00A99D" fill-rule="evenodd" d="M24.644 3.342l2.793 2.771c.772.765.772 2.005 0 2.771l-2.793 2.77c-.771.765-2.021.765-2.793 0l-2.793-2.77c-.771-.766-.771-2.006 0-2.771l2.793-2.771c.772-.765 2.022-.765 2.793 0z" opacity=".4"/>
    <path fill="#00A99D" fill-rule="evenodd" d="M16.782 1.957l4.189 4.156c.772.765.772 2.005 0 2.771l-4.189 4.156c-.771.764-2.022.764-2.793 0l-4.19-4.156c-.771-.766-.771-2.006 0-2.771l4.19-4.156c.771-.765 2.022-.765 2.793 0z" opacity=".702"/>
    <path fill="#00A99D" fill-rule="evenodd" d="M8.957.572l5.586 5.541c.771.765.771 2.005 0 2.771l-5.586 5.541c-.771.764-2.022.764-2.793 0L.578 8.884c-.771-.766-.771-2.006 0-2.771L6.164.572c.771-.765 2.022-.765 2.793 0z"/>
</svg>
