<?xml version="1.0" encoding="utf-8"?>
<!-- Generated by IcoMoon.io -->
<!DOCTYPE svg PUBLIC "-//W3C//DTD SVG 1.1//EN" "http://www.w3.org/Graphics/SVG/1.1/DTD/svg11.dtd">
<svg version="1.1" xmlns="http://www.w3.org/2000/svg" xmlns:xlink="http://www.w3.org/1999/xlink" width="512" height="512" viewBox="0 0 512 512">
<g>
</g>
	<path d="M48.825 182.61c0 0 53.361-41.493 65.526 40.489l34.621 129.516c0 0 36.403 133.571 118.405 103.198 0 0 124.089-67.236 212.51-261.069 0 0 51.62-142.725-45.578-142.725 0 0-103.659-10.343-130.57 82.35 0 0-8.97 28.918 21.289 26.983 0 0 51.62-18.227 18.279 63.764 0 0-36.485 84.982-66.857 84.982 0 0-36.382 1.045-45.476-153.785 0 0 2.15-100.69-76.79-100.69 0 0-47.708 14.653-135.762 108.739l30.403 18.248z" fill="#00a99d" />
</svg>
